# xmcd
#
# Track frame offsets:
# 150
# 31310
# 55890
# 82150
# 103082
# 128355
# 148715
# 169115
# 190525
# 224292
# 250362
#
# Disc length: 3641 seconds
#
#
# Revision: 0
# Processed by: cddbd v1.5.1PL0 Copyright (c) Steve Scherf et al.
# Submitted via: FreeRIP 2.91 
#
DISCID=970e370b
DTITLE=Voivod - Kronik
DYEAR=1998
DGENRE=Thrash Metal
TTITLE0=Forlorn (Foetus Remix)
TTITLE1=Nanoman (Zoobone Sound Remix)
TTITLE2=Mercury (DJ Accucrack Remix)
TTITLE3=Vortex
TTITLE4=Drift
TTITLE5=Erosion
TTITLE6=Ion
TTITLE7=Project X (live)
TTITLE8=Cosmic Conspiracy (live)
TTITLE9=Astronomy Domine (live)
TTITLE10=Nuclear War (live)
EXTD=Label: Hypnotic Records\nYear: 1998
EXTT0=
EXTT1=
EXTT2=
EXTT3=
EXTT4=
EXTT5=
EXTT6=
EXTT7=
EXTT8=
EXTT9=
EXTT10=
PLAYORDER=
